<svg xmlns="http://www.w3.org/2000/svg" viewBox="0 0 2882 1784" font-family="Segoe UI, Arial, sans-serif">
<rect width="2882" height="1784" fill="#f6f5f1"/>
<text x="1441" y="30" text-anchor="middle" font-size="19" font-weight="600" fill="#24292f">GAGAME — the GA state diagram (full catalog)</text>
<text x="1441" y="48" text-anchor="middle" font-size="11" fill="#57606a">generated from docs/ga_ast.json — the registry gatest validates; wires carry field [units], crimson badge = v-flip in the sampling code, dashed = inactive consumer</text>
<path d="M 1356 114 C 1427 114, 1455 420, 1526 420" fill="none" stroke="#4a9e63" stroke-width="1.6" opacity="0.75"/>
<circle cx="1356" cy="114" r="3.2" fill="#4a9e63"/>
<circle cx="1526" cy="420" r="3.2" fill="#4a9e63"/>
<rect x="1422" y="250" width="37" height="13" rx="3" fill="#f6f5f1" opacity="0.9"/>
<text x="1441" y="260" text-anchor="middle" font-size="9.5" fill="#454c54">paint</text>
<circle cx="1468" cy="256" r="7" fill="#c93c37"/>
<text x="1468" y="259" text-anchor="middle" font-size="9" fill="#fff">&#8645;</text>
<path d="M 1356 129 C 1427 129, 1455 201, 1526 201" fill="none" stroke="#4a9e63" stroke-width="1.6" opacity="0.75"/>
<circle cx="1356" cy="129" r="3.2" fill="#4a9e63"/>
<circle cx="1526" cy="201" r="3.2" fill="#4a9e63"/>
<rect x="1422" y="168" width="37" height="13" rx="3" fill="#f6f5f1" opacity="0.9"/>
<text x="1441" y="178" text-anchor="middle" font-size="9.5" fill="#454c54">paint</text>
<circle cx="1468" cy="174" r="7" fill="#c93c37"/>
<text x="1468" y="177" text-anchor="middle" font-size="9" fill="#fff">&#8645;</text>
<path d="M 1356 144 C 1427 144, 1455 114, 1526 114" fill="none" stroke="#4a9e63" stroke-width="1.6" opacity="0.75"/>
<circle cx="1356" cy="144" r="3.2" fill="#4a9e63"/>
<circle cx="1526" cy="114" r="3.2" fill="#4a9e63"/>
<rect x="1422" y="112" width="37" height="13" rx="3" fill="#f6f5f1" opacity="0.9"/>
<text x="1441" y="122" text-anchor="middle" font-size="9.5" fill="#454c54">paint</text>
<path d="M 1726 420 C 1953 420, 2039 216, 2266 216" fill="none" stroke="#4a9e63" stroke-width="1.6" opacity="0.75"/>
<circle cx="1726" cy="420" r="3.2" fill="#4a9e63"/>
<circle cx="2266" cy="216" r="3.2" fill="#4a9e63"/>
<rect x="1956" y="321" width="80" height="13" rx="3" fill="#f6f5f1" opacity="0.9"/>
<text x="1996" y="331" text-anchor="middle" font-size="9.5" fill="#454c54">window-sample</text>
<path d="M 1726 201 C 1953 201, 2039 231, 2266 231" fill="none" stroke="#4a9e63" stroke-width="1.6" opacity="0.75"/>
<circle cx="1726" cy="201" r="3.2" fill="#4a9e63"/>
<circle cx="2266" cy="231" r="3.2" fill="#4a9e63"/>
<rect x="1956" y="199" width="80" height="13" rx="3" fill="#f6f5f1" opacity="0.9"/>
<text x="1996" y="209" text-anchor="middle" font-size="9.5" fill="#454c54">detail-sample</text>
<path d="M 246 1131 C 784 1131, 988 435, 1526 435" fill="none" stroke="#4a9e63" stroke-width="1.6" opacity="0.75"/>
<circle cx="246" cy="1131" r="3.2" fill="#4a9e63"/>
<circle cx="1526" cy="435" r="3.2" fill="#4a9e63"/>
<rect x="868" y="786" width="37" height="13" rx="3" fill="#f6f5f1" opacity="0.9"/>
<text x="886" y="796" text-anchor="middle" font-size="9.5" fill="#454c54">fetch</text>
<path d="M 246 1218 C 784 1218, 988 450, 1526 450" fill="none" stroke="#4a9e63" stroke-width="1.6" opacity="0.75"/>
<circle cx="246" cy="1218" r="3.2" fill="#4a9e63"/>
<circle cx="1526" cy="450" r="3.2" fill="#4a9e63"/>
<rect x="868" y="817" width="37" height="13" rx="3" fill="#f6f5f1" opacity="0.9"/>
<text x="886" y="827" text-anchor="middle" font-size="9.5" fill="#454c54">fetch</text>
<circle cx="912" cy="823" r="7" fill="#c93c37"/>
<text x="912" y="826" text-anchor="middle" font-size="9" fill="#fff">&#8645;</text>
<path d="M 246 1653 C 317 1653, 345 918, 416 918" fill="none" stroke="#4a9e63" stroke-width="1.6" opacity="0.75"/>
<circle cx="246" cy="1653" r="3.2" fill="#4a9e63"/>
<circle cx="416" cy="918" r="3.2" fill="#4a9e63"/>
<rect x="304" y="1288" width="53" height="13" rx="3" fill="#f6f5f1" opacity="0.9"/>
<text x="331" y="1298" text-anchor="middle" font-size="9.5" fill="#454c54">classify</text>
<path d="M 246 1479 C 317 1479, 345 744, 416 744" fill="none" stroke="#c09a3e" stroke-width="1.6" opacity="0.75"/>
<circle cx="246" cy="1479" r="3.2" fill="#c09a3e"/>
<circle cx="416" cy="744" r="3.2" fill="#c09a3e"/>
<rect x="312" y="1094" width="37" height="13" rx="3" fill="#f6f5f1" opacity="0.9"/>
<text x="331" y="1104" text-anchor="middle" font-size="9.5" fill="#454c54">wants</text>
<path d="M 616 744 C 1309 744, 1573 246, 2266 246" fill="none" stroke="#c09a3e" stroke-width="1.6" opacity="0.75"/>
<circle cx="616" cy="744" r="3.2" fill="#c09a3e"/>
<circle cx="2266" cy="246" r="3.2" fill="#c09a3e"/>
<rect x="1414" y="498" width="53" height="13" rx="3" fill="#f6f5f1" opacity="0.9"/>
<text x="1441" y="508" text-anchor="middle" font-size="9.5" fill="#454c54">have-map</text>
<path d="M 246 1566 C 317 1566, 345 831, 416 831" fill="none" stroke="#6e7781" stroke-width="1.6" opacity="0.75"/>
<circle cx="246" cy="1566" r="3.2" fill="#6e7781"/>
<circle cx="416" cy="831" r="3.2" fill="#6e7781"/>
<rect x="280" y="1182" width="102" height="13" rx="3" fill="#f6f5f1" opacity="0.9"/>
<text x="331" y="1192" text-anchor="middle" font-size="9.5" fill="#454c54">anchor-linear map</text>
<path d="M 246 201 C 939 201, 1203 114, 1896 114" fill="none" stroke="#4a9e63" stroke-width="1.6" opacity="0.75"/>
<circle cx="246" cy="201" r="3.2" fill="#4a9e63"/>
<circle cx="1896" cy="114" r="3.2" fill="#4a9e63"/>
<rect x="1031" y="160" width="80" height="13" rx="3" fill="#f6f5f1" opacity="0.9"/>
<text x="1071" y="170" text-anchor="middle" font-size="9.5" fill="#454c54">bed per texel</text>
<path d="M 616 201 C 1154 201, 1358 129, 1896 129" fill="none" stroke="#3b82c4" stroke-width="1.6" opacity="0.75"/>
<circle cx="616" cy="201" r="3.2" fill="#3b82c4"/>
<circle cx="1896" cy="129" r="3.2" fill="#3b82c4"/>
<rect x="1219" y="148" width="75" height="13" rx="3" fill="#f6f5f1" opacity="0.9"/>
<text x="1256" y="158" text-anchor="middle" font-size="9.5" fill="#454c54">cascade.disp</text>
<path d="M 616 216 C 1154 216, 1358 144, 1896 144" fill="none" stroke="#3b82c4" stroke-width="1.6" opacity="0.75"/>
<circle cx="616" cy="216" r="3.2" fill="#3b82c4"/>
<circle cx="1896" cy="144" r="3.2" fill="#3b82c4"/>
<rect x="1181" y="183" width="150" height="13" rx="3" fill="#f6f5f1" opacity="0.9"/>
<text x="1256" y="193" text-anchor="middle" font-size="9.5" fill="#454c54">cascade.deriv (foam union)</text>
<path d="M 616 231 C 1309 231, 1573 261, 2266 261" fill="none" stroke="#3b82c4" stroke-width="1.6" opacity="0.75"/>
<circle cx="616" cy="231" r="3.2" fill="#3b82c4"/>
<circle cx="2266" cy="261" r="3.2" fill="#3b82c4"/>
<rect x="1401" y="229" width="80" height="13" rx="3" fill="#f6f5f1" opacity="0.9"/>
<text x="1441" y="239" text-anchor="middle" font-size="9.5" fill="#454c54">cascade.deriv</text>
<path d="M 616 246 C 1309 246, 1573 276, 2266 276" fill="none" stroke="#3b82c4" stroke-width="1.6" opacity="0.75"/>
<circle cx="616" cy="246" r="3.2" fill="#3b82c4"/>
<circle cx="2266" cy="276" r="3.2" fill="#3b82c4"/>
<rect x="1393" y="264" width="96" height="13" rx="3" fill="#f6f5f1" opacity="0.9"/>
<text x="1441" y="274" text-anchor="middle" font-size="9.5" fill="#454c54">caustic jacobian</text>
<path d="M 616 348 C 1154 348, 1358 159, 1896 159" fill="none" stroke="#3b82c4" stroke-width="1.6" opacity="0.75"/>
<circle cx="616" cy="348" r="3.2" fill="#3b82c4"/>
<circle cx="1896" cy="159" r="3.2" fill="#3b82c4"/>
<rect x="1243" y="236" width="26" height="13" rx="3" fill="#f6f5f1" opacity="0.9"/>
<text x="1256" y="246" text-anchor="middle" font-size="9.5" fill="#454c54">eta</text>
<circle cx="1277" cy="242" r="7" fill="#c93c37"/>
<text x="1277" y="246" text-anchor="middle" font-size="9" fill="#fff">&#8645;</text>
<path d="M 616 363 C 1154 363, 1358 174, 1896 174" fill="none" stroke="#3b82c4" stroke-width="1.6" opacity="0.75"/>
<circle cx="616" cy="363" r="3.2" fill="#3b82c4"/>
<circle cx="1896" cy="174" r="3.2" fill="#3b82c4"/>
<rect x="1246" y="272" width="21" height="13" rx="3" fill="#f6f5f1" opacity="0.9"/>
<text x="1256" y="282" text-anchor="middle" font-size="9.5" fill="#454c54">uv</text>
<circle cx="1274" cy="278" r="7" fill="#c93c37"/>
<text x="1274" y="280" text-anchor="middle" font-size="9" fill="#fff">&#8645;</text>
<path d="M 616 378 C 1154 378, 1358 189, 1896 189" fill="none" stroke="#3b82c4" stroke-width="1.6" opacity="0.75"/>
<circle cx="616" cy="378" r="3.2" fill="#3b82c4"/>
<circle cx="1896" cy="189" r="3.2" fill="#3b82c4"/>
<rect x="1235" y="266" width="42" height="13" rx="3" fill="#f6f5f1" opacity="0.9"/>
<text x="1256" y="276" text-anchor="middle" font-size="9.5" fill="#454c54">shadow</text>
<circle cx="1285" cy="272" r="7" fill="#c93c37"/>
<text x="1285" y="276" text-anchor="middle" font-size="9" fill="#fff">&#8645;</text>
<path d="M 986 114 C 1368 114, 1514 204, 1896 204" fill="none" stroke="#3b82c4" stroke-width="1.6" opacity="0.75"/>
<circle cx="986" cy="114" r="3.2" fill="#3b82c4"/>
<circle cx="1896" cy="204" r="3.2" fill="#3b82c4"/>
<rect x="1422" y="162" width="37" height="13" rx="3" fill="#f6f5f1" opacity="0.9"/>
<text x="1441" y="172" text-anchor="middle" font-size="9.5" fill="#454c54">churn</text>
<path d="M 246 288 C 473 288, 559 114, 786 114" fill="none" stroke="#3b82c4" stroke-width="1.6" opacity="0.75"/>
<circle cx="246" cy="288" r="3.2" fill="#3b82c4"/>
<circle cx="786" cy="114" r="3.2" fill="#3b82c4"/>
<rect x="503" y="184" width="26" height="13" rx="3" fill="#f6f5f1" opacity="0.9"/>
<text x="516" y="194" text-anchor="middle" font-size="9.5" fill="#454c54">bed</text>
<circle cx="537" cy="190" r="7" fill="#c93c37"/>
<text x="537" y="193" text-anchor="middle" font-size="9" fill="#fff">&#8645;</text>
<path d="M 246 303 C 628 303, 774 261, 1156 261" fill="none" stroke="#3b82c4" stroke-width="1.6" opacity="0.75" stroke-dasharray="6 5"/>
<circle cx="246" cy="303" r="3.2" fill="#3b82c4"/>
<circle cx="1156" cy="261" r="3.2" fill="#3b82c4"/>
<rect x="688" y="285" width="26" height="13" rx="3" fill="#f6f5f1" opacity="0.9"/>
<text x="701" y="295" text-anchor="middle" font-size="9.5" fill="#454c54">bed</text>
<circle cx="722" cy="291" r="7" fill="#c93c37"/>
<text x="722" y="294" text-anchor="middle" font-size="9" fill="#fff">&#8645;</text>
<path d="M 616 393 C 843 393, 929 276, 1156 276" fill="none" stroke="#3b82c4" stroke-width="1.6" opacity="0.75" stroke-dasharray="6 5"/>
<circle cx="616" cy="393" r="3.2" fill="#3b82c4"/>
<circle cx="1156" cy="276" r="3.2" fill="#3b82c4"/>
<rect x="873" y="318" width="26" height="13" rx="3" fill="#f6f5f1" opacity="0.9"/>
<text x="886" y="328" text-anchor="middle" font-size="9.5" fill="#454c54">eta</text>
<circle cx="907" cy="324" r="7" fill="#c93c37"/>
<text x="907" y="326" text-anchor="middle" font-size="9" fill="#fff">&#8645;</text>
<path d="M 616 408 C 843 408, 929 291, 1156 291" fill="none" stroke="#3b82c4" stroke-width="1.6" opacity="0.75" stroke-dasharray="6 5"/>
<circle cx="616" cy="408" r="3.2" fill="#3b82c4"/>
<circle cx="1156" cy="291" r="3.2" fill="#3b82c4"/>
<rect x="865" y="352" width="42" height="13" rx="3" fill="#f6f5f1" opacity="0.9"/>
<text x="886" y="362" text-anchor="middle" font-size="9.5" fill="#454c54">shadow</text>
<circle cx="915" cy="358" r="7" fill="#c93c37"/>
<text x="915" y="362" text-anchor="middle" font-size="9" fill="#fff">&#8645;</text>
<path d="M 986 129 C 1057 129, 1085 306, 1156 306" fill="none" stroke="#3b82c4" stroke-width="1.6" opacity="0.75" stroke-dasharray="6 5"/>
<circle cx="986" cy="129" r="3.2" fill="#3b82c4"/>
<circle cx="1156" cy="306" r="3.2" fill="#3b82c4"/>
<rect x="1052" y="200" width="37" height="13" rx="3" fill="#f6f5f1" opacity="0.9"/>
<text x="1071" y="210" text-anchor="middle" font-size="9.5" fill="#454c54">churn</text>
<path d="M 1356 159 C 1583 159, 1669 219, 1896 219" fill="none" stroke="#4a9e63" stroke-width="1.6" opacity="0.75"/>
<circle cx="1356" cy="159" r="3.2" fill="#4a9e63"/>
<circle cx="1896" cy="219" r="3.2" fill="#4a9e63"/>
<rect x="1602" y="192" width="48" height="13" rx="3" fill="#f6f5f1" opacity="0.9"/>
<text x="1626" y="202" text-anchor="middle" font-size="9.5" fill="#454c54">corners</text>
<path d="M 1356 174 C 1427 174, 1455 288, 1526 288" fill="none" stroke="#4a9e63" stroke-width="1.6" opacity="0.75"/>
<circle cx="1356" cy="174" r="3.2" fill="#4a9e63"/>
<circle cx="1526" cy="288" r="3.2" fill="#4a9e63"/>
<rect x="1398" y="214" width="86" height="13" rx="3" fill="#f6f5f1" opacity="0.9"/>
<text x="1441" y="224" text-anchor="middle" font-size="9.5" fill="#454c54">bed (per cell)</text>
<path d="M 616 525 C 998 525, 1144 303, 1526 303" fill="none" stroke="#3b82c4" stroke-width="1.6" opacity="0.75"/>
<circle cx="616" cy="525" r="3.2" fill="#3b82c4"/>
<circle cx="1526" cy="303" r="3.2" fill="#3b82c4"/>
<rect x="1034" y="417" width="75" height="13" rx="3" fill="#f6f5f1" opacity="0.9"/>
<text x="1071" y="427" text-anchor="middle" font-size="9.5" fill="#454c54">level bucket</text>
<path d="M 246 870 C 784 870, 988 318, 1526 318" fill="none" stroke="#6e7781" stroke-width="1.6" opacity="0.75"/>
<circle cx="246" cy="870" r="3.2" fill="#6e7781"/>
<circle cx="1526" cy="318" r="3.2" fill="#6e7781"/>
<rect x="816" y="577" width="140" height="13" rx="3" fill="#f6f5f1" opacity="0.9"/>
<text x="886" y="587" text-anchor="middle" font-size="9.5" fill="#454c54">current proxy (fallback)</text>
<path d="M 616 423 C 998 423, 1144 333, 1526 333" fill="none" stroke="#3b82c4" stroke-width="1.6" opacity="0.75"/>
<circle cx="616" cy="423" r="3.2" fill="#3b82c4"/>
<circle cx="1526" cy="333" r="3.2" fill="#3b82c4"/>
<rect x="1023" y="381" width="96" height="13" rx="3" fill="#f6f5f1" opacity="0.9"/>
<text x="1071" y="391" text-anchor="middle" font-size="9.5" fill="#454c54">current (solved)</text>
<circle cx="1127" cy="387" r="7" fill="#c93c37"/>
<text x="1127" y="390" text-anchor="middle" font-size="9" fill="#fff">&#8645;</text>
<path d="M 1726 288 C 1797 288, 1825 234, 1896 234" fill="none" stroke="#6e7781" stroke-width="1.6" opacity="0.75"/>
<circle cx="1726" cy="288" r="3.2" fill="#6e7781"/>
<circle cx="1896" cy="234" r="3.2" fill="#6e7781"/>
<rect x="1744" y="244" width="134" height="13" rx="3" fill="#f6f5f1" opacity="0.9"/>
<text x="1811" y="254" text-anchor="middle" font-size="9.5" fill="#454c54">a/k/phase-spinor planes</text>
<path d="M 2096 114 C 2167 114, 2195 291, 2266 291" fill="none" stroke="#3b82c4" stroke-width="1.6" opacity="0.75"/>
<circle cx="2096" cy="114" r="3.2" fill="#3b82c4"/>
<circle cx="2266" cy="291" r="3.2" fill="#3b82c4"/>
<rect x="2130" y="206" width="102" height="13" rx="3" fill="#f6f5f1" opacity="0.9"/>
<text x="2181" y="216" text-anchor="middle" font-size="9.5" fill="#454c54">disp/param/detail</text>
<path d="M 2096 129 C 2167 129, 2195 114, 2266 114" fill="none" stroke="#3b82c4" stroke-width="1.6" opacity="0.75"/>
<circle cx="2096" cy="129" r="3.2" fill="#3b82c4"/>
<circle cx="2266" cy="114" r="3.2" fill="#3b82c4"/>
<rect x="2149" y="104" width="64" height="13" rx="3" fill="#f6f5f1" opacity="0.9"/>
<text x="2181" y="114" text-anchor="middle" font-size="9.5" fill="#454c54">disp+level</text>
<path d="M 246 1392 C 317 1392, 345 525, 416 525" fill="none" stroke="#3b82c4" stroke-width="1.6" opacity="0.75"/>
<circle cx="246" cy="1392" r="3.2" fill="#3b82c4"/>
<circle cx="416" cy="525" r="3.2" fill="#3b82c4"/>
<rect x="294" y="962" width="75" height="13" rx="3" fill="#f6f5f1" opacity="0.9"/>
<text x="331" y="972" text-anchor="middle" font-size="9.5" fill="#454c54">harmonic fit</text>
<path d="M 246 1305 C 317 1305, 345 540, 416 540" fill="none" stroke="#3b82c4" stroke-width="1.6" opacity="0.75"/>
<circle cx="246" cy="1305" r="3.2" fill="#3b82c4"/>
<circle cx="416" cy="540" r="3.2" fill="#3b82c4"/>
<rect x="296" y="906" width="69" height="13" rx="3" fill="#f6f5f1" opacity="0.9"/>
<text x="331" y="916" text-anchor="middle" font-size="9.5" fill="#454c54">phasor grid</text>
<path d="M 616 540 C 687 540, 715 333, 786 333" fill="none" stroke="#3b82c4" stroke-width="1.6" opacity="0.75"/>
<circle cx="616" cy="540" r="3.2" fill="#3b82c4"/>
<circle cx="786" cy="333" r="3.2" fill="#3b82c4"/>
<rect x="637" y="440" width="129" height="13" rx="3" fill="#f6f5f1" opacity="0.9"/>
<text x="701" y="450" text-anchor="middle" font-size="9.5" fill="#454c54">tide phasors x18 (M8i)</text>
<circle cx="773" cy="446" r="7" fill="#c93c37"/>
<text x="773" y="448" text-anchor="middle" font-size="9" fill="#fff">&#8645;</text>
<path d="M 616 555 C 687 555, 715 231, 786 231" fill="none" stroke="#3b82c4" stroke-width="1.6" opacity="0.75"/>
<circle cx="616" cy="555" r="3.2" fill="#3b82c4"/>
<circle cx="786" cy="231" r="3.2" fill="#3b82c4"/>
<rect x="664" y="376" width="75" height="13" rx="3" fill="#f6f5f1" opacity="0.9"/>
<text x="701" y="386" text-anchor="middle" font-size="9.5" fill="#454c54">level rotors</text>
<path d="M 616 570 C 1309 570, 1573 129, 2266 129" fill="none" stroke="#3b82c4" stroke-width="1.6" opacity="0.75"/>
<circle cx="616" cy="570" r="3.2" fill="#3b82c4"/>
<circle cx="2266" cy="129" r="3.2" fill="#3b82c4"/>
<rect x="1355" y="352" width="172" height="13" rx="3" fill="#f6f5f1" opacity="0.9"/>
<text x="1441" y="362" text-anchor="middle" font-size="9.5" fill="#454c54">datum envelope (origin planes)</text>
<path d="M 246 477 C 473 477, 559 246, 786 246" fill="none" stroke="#3b82c4" stroke-width="1.6" opacity="0.75"/>
<circle cx="246" cy="477" r="3.2" fill="#3b82c4"/>
<circle cx="786" cy="246" r="3.2" fill="#3b82c4"/>
<rect x="487" y="344" width="59" height="13" rx="3" fill="#f6f5f1" opacity="0.9"/>
<text x="516" y="354" text-anchor="middle" font-size="9.5" fill="#454c54">hs/tp/dir</text>
<circle cx="553" cy="350" r="7" fill="#c93c37"/>
<text x="553" y="354" text-anchor="middle" font-size="9" fill="#fff">&#8645;</text>
<path d="M 986 231 C 1057 231, 1085 114, 1156 114" fill="none" stroke="#6e7781" stroke-width="1.6" opacity="0.75"/>
<circle cx="986" cy="231" r="3.2" fill="#6e7781"/>
<circle cx="1156" cy="114" r="3.2" fill="#6e7781"/>
<rect x="1017" y="176" width="107" height="13" rx="3" fill="#f6f5f1" opacity="0.9"/>
<text x="1071" y="186" text-anchor="middle" font-size="9.5" fill="#454c54">corner params feed</text>
<path d="M 246 492 C 1094 492, 1418 306, 2266 306" fill="none" stroke="#3b82c4" stroke-width="1.6" opacity="0.75"/>
<circle cx="246" cy="492" r="3.2" fill="#3b82c4"/>
<circle cx="2266" cy="306" r="3.2" fill="#3b82c4"/>
<rect x="1219" y="382" width="75" height="13" rx="3" fill="#f6f5f1" opacity="0.9"/>
<text x="1256" y="392" text-anchor="middle" font-size="9.5" fill="#454c54">hs whitening</text>
<circle cx="1301" cy="388" r="7" fill="#c93c37"/>
<text x="1301" y="391" text-anchor="middle" font-size="9" fill="#fff">&#8645;</text>
<path d="M 246 768 C 1094 768, 1418 321, 2266 321" fill="none" stroke="#9d70e0" stroke-width="1.6" opacity="0.75"/>
<circle cx="246" cy="768" r="3.2" fill="#9d70e0"/>
<circle cx="2266" cy="321" r="3.2" fill="#9d70e0"/>
<rect x="1200" y="548" width="113" height="13" rx="3" fill="#f6f5f1" opacity="0.9"/>
<text x="1256" y="558" text-anchor="middle" font-size="9.5" fill="#454c54">wind10 (far sigma2)</text>
<circle cx="1320" cy="554" r="7" fill="#c93c37"/>
<text x="1320" y="556" text-anchor="middle" font-size="9" fill="#fff">&#8645;</text>
<path d="M 246 783 C 317 783, 345 201, 416 201" fill="none" stroke="#9d70e0" stroke-width="1.6" opacity="0.75"/>
<circle cx="246" cy="783" r="3.2" fill="#9d70e0"/>
<circle cx="416" cy="201" r="3.2" fill="#9d70e0"/>
<rect x="204" y="475" width="253" height="13" rx="3" fill="#f6f5f1" opacity="0.9"/>
<text x="331" y="485" text-anchor="middle" font-size="9.5" fill="#454c54">wind-sea fill (PM, when partitions have none)</text>
<path d="M 246 666 C 1094 666, 1418 336, 2266 336" fill="none" stroke="#3b82c4" stroke-width="1.6" opacity="0.75"/>
<circle cx="246" cy="666" r="3.2" fill="#3b82c4"/>
<circle cx="2266" cy="336" r="3.2" fill="#3b82c4"/>
<rect x="1184" y="504" width="145" height="13" rx="3" fill="#f6f5f1" opacity="0.9"/>
<text x="1256" y="514" text-anchor="middle" font-size="9.5" fill="#454c54">Kd490 -&gt; Kd(RGB) transfer</text>
<circle cx="1336" cy="510" r="7" fill="#c93c37"/>
<text x="1336" y="513" text-anchor="middle" font-size="9" fill="#fff">&#8645;</text>
<path d="M 246 681 C 1094 681, 1418 351, 2266 351" fill="none" stroke="#3b82c4" stroke-width="1.6" opacity="0.75"/>
<circle cx="246" cy="681" r="3.2" fill="#3b82c4"/>
<circle cx="2266" cy="351" r="3.2" fill="#3b82c4"/>
<rect x="1192" y="499" width="129" height="13" rx="3" fill="#f6f5f1" opacity="0.9"/>
<text x="1256" y="509" text-anchor="middle" font-size="9.5" fill="#454c54">chl/SPM -&gt; deep albedo</text>
<circle cx="1328" cy="505" r="7" fill="#c93c37"/>
<text x="1328" y="508" text-anchor="middle" font-size="9" fill="#fff">&#8645;</text>
<path d="M 246 390 C 1094 390, 1418 366, 2266 366" fill="none" stroke="#9d70e0" stroke-width="1.6" opacity="0.75"/>
<circle cx="246" cy="390" r="3.2" fill="#9d70e0"/>
<circle cx="2266" cy="366" r="3.2" fill="#9d70e0"/>
<rect x="1189" y="381" width="134" height="13" rx="3" fill="#f6f5f1" opacity="0.9"/>
<text x="1256" y="391" text-anchor="middle" font-size="9.5" fill="#454c54">ice albedo + glint damp</text>
<circle cx="1331" cy="387" r="7" fill="#c93c37"/>
<text x="1331" y="390" text-anchor="middle" font-size="9" fill="#fff">&#8645;</text>
<path d="M 246 114 C 317 114, 345 114, 416 114" fill="none" stroke="#9d70e0" stroke-width="1.6" opacity="0.75"/>
<circle cx="246" cy="114" r="3.2" fill="#9d70e0"/>
<circle cx="416" cy="114" r="3.2" fill="#9d70e0"/>
<rect x="294" y="97" width="75" height="13" rx="3" fill="#f6f5f1" opacity="0.9"/>
<text x="331" y="107" text-anchor="middle" font-size="9.5" fill="#454c54">density bake</text>
<circle cx="376" cy="103" r="7" fill="#c93c37"/>
<text x="376" y="106" text-anchor="middle" font-size="9" fill="#fff">&#8645;</text>
<path d="M 616 114 C 1309 114, 1573 381, 2266 381" fill="none" stroke="#9d70e0" stroke-width="1.6" opacity="0.75"/>
<circle cx="616" cy="114" r="3.2" fill="#9d70e0"/>
<circle cx="2266" cy="381" r="3.2" fill="#9d70e0"/>
<rect x="1401" y="250" width="80" height="13" rx="3" fill="#f6f5f1" opacity="0.9"/>
<text x="1441" y="260" text-anchor="middle" font-size="9.5" fill="#454c54">density march</text>
<circle cx="1489" cy="256" r="7" fill="#c93c37"/>
<text x="1489" y="260" text-anchor="middle" font-size="9" fill="#fff">&#8645;</text>
<path d="M 246 579 C 1094 579, 1418 396, 2266 396" fill="none" stroke="#9d70e0" stroke-width="1.6" opacity="0.75"/>
<circle cx="246" cy="579" r="3.2" fill="#9d70e0"/>
<circle cx="2266" cy="396" r="3.2" fill="#9d70e0"/>
<rect x="1219" y="470" width="75" height="13" rx="3" fill="#f6f5f1" opacity="0.9"/>
<text x="1256" y="480" text-anchor="middle" font-size="9.5" fill="#454c54">curl overlay</text>
<path d="M 616 261 C 687 261, 715 129, 786 129" fill="none" stroke="#3b82c4" stroke-width="1.6" opacity="0.75"/>
<circle cx="616" cy="261" r="3.2" fill="#3b82c4"/>
<circle cx="786" cy="129" r="3.2" fill="#3b82c4"/>
<rect x="642" y="198" width="118" height="13" rx="3" fill="#f6f5f1" opacity="0.9"/>
<text x="701" y="208" text-anchor="middle" font-size="9.5" fill="#454c54">chop deriv (pattern)</text>
<path d="M 616 438 C 687 438, 715 144, 786 144" fill="none" stroke="#3b82c4" stroke-width="1.6" opacity="0.75"/>
<circle cx="616" cy="438" r="3.2" fill="#3b82c4"/>
<circle cx="786" cy="144" r="3.2" fill="#3b82c4"/>
<rect x="661" y="274" width="80" height="13" rx="3" fill="#f6f5f1" opacity="0.9"/>
<text x="701" y="284" text-anchor="middle" font-size="9.5" fill="#454c54">uv (blocking)</text>
<circle cx="749" cy="280" r="7" fill="#c93c37"/>
<text x="749" y="283" text-anchor="middle" font-size="9" fill="#fff">&#8645;</text>
<path d="M 246 957 C 317 957, 345 348, 416 348" fill="none" stroke="#3b82c4" stroke-width="1.6" opacity="0.75"/>
<circle cx="246" cy="957" r="3.2" fill="#3b82c4"/>
<circle cx="416" cy="348" r="3.2" fill="#3b82c4"/>
<rect x="261" y="656" width="140" height="13" rx="3" fill="#f6f5f1" opacity="0.9"/>
<text x="331" y="666" text-anchor="middle" font-size="9.5" fill="#454c54">shadow build (LOS march)</text>
<circle cx="409" cy="662" r="7" fill="#c93c37"/>
<text x="409" y="664" text-anchor="middle" font-size="9" fill="#fff">&#8645;</text>
<path d="M 246 1044 C 317 1044, 345 657, 416 657" fill="none" stroke="#4a9e63" stroke-width="1.6" opacity="0.75"/>
<circle cx="246" cy="1044" r="3.2" fill="#4a9e63"/>
<circle cx="416" cy="657" r="3.2" fill="#4a9e63"/>
<rect x="272" y="834" width="118" height="13" rx="3" fill="#f6f5f1" opacity="0.9"/>
<text x="331" y="844" text-anchor="middle" font-size="9.5" fill="#454c54">polygons + fine mask</text>
<circle cx="398" cy="840" r="7" fill="#c93c37"/>
<text x="398" y="842" text-anchor="middle" font-size="9" fill="#fff">&#8645;</text>
<path d="M 616 657 C 1309 657, 1573 411, 2266 411" fill="none" stroke="#4a9e63" stroke-width="1.6" opacity="0.75"/>
<circle cx="616" cy="657" r="3.2" fill="#4a9e63"/>
<circle cx="2266" cy="411" r="3.2" fill="#4a9e63"/>
<rect x="1385" y="537" width="113" height="13" rx="3" fill="#f6f5f1" opacity="0.9"/>
<text x="1441" y="547" text-anchor="middle" font-size="9.5" fill="#454c54">classifier override</text>
<path d="M 2466 216 C 2537 216, 2565 114, 2636 114" fill="none" stroke="#c09a3e" stroke-width="1.6" opacity="0.75"/>
<circle cx="2466" cy="216" r="3.2" fill="#c09a3e"/>
<circle cx="2636" cy="114" r="3.2" fill="#c09a3e"/>
<rect x="2476" y="148" width="150" height="13" rx="3" fill="#f6f5f1" opacity="0.9"/>
<text x="2551" y="158" text-anchor="middle" font-size="9.5" fill="#454c54">radiance (accepting state)</text>
<rect x="46" y="832" width="200" height="53" rx="8" fill="#ffffff" stroke="#d0d7de" stroke-width="1.2"/>
<path d="M 46 840 q 0 -8 8 -8 h 184 q 8 0 8 8 v 18 h -200 z" fill="#57606a"/>
<text x="146.0" y="850" text-anchor="middle" font-size="12" font-weight="600" fill="#ffffff">act.currents</text>
<rect x="46" y="250" width="200" height="68" rx="8" fill="#ffffff" stroke="#d0d7de" stroke-width="1.2"/>
<path d="M 46 258 q 0 -8 8 -8 h 184 q 8 0 8 8 v 18 h -200 z" fill="#1f6feb"/>
<text x="146.0" y="268" text-anchor="middle" font-size="12" font-weight="600" fill="#ffffff">bathy.cudem</text>
<rect x="786" y="76" width="200" height="83" rx="8" fill="#ffffff" stroke="#d0d7de" stroke-width="1.2"/>
<path d="M 786 84 q 0 -8 8 -8 h 184 q 8 0 8 8 v 18 h -200 z" fill="#1f6feb"/>
<text x="886.0" y="94" text-anchor="middle" font-size="12" font-weight="600" fill="#ffffff">churn.kernel</text>
<rect x="416" y="76" width="200" height="53" rx="8" fill="#ffffff" stroke="#d0d7de" stroke-width="1.2"/>
<path d="M 416 84 q 0 -8 8 -8 h 184 q 8 0 8 8 v 18 h -200 z" fill="#8250df"/>
<text x="516.0" y="94" text-anchor="middle" font-size="12" font-weight="600" fill="#ffffff">cloud.volume</text>
<rect x="1156" y="76" width="200" height="113" rx="8" fill="#ffffff" stroke="#d0d7de" stroke-width="1.2"/>
<path d="M 1156 84 q 0 -8 8 -8 h 184 q 8 0 8 8 v 18 h -200 z" fill="#2f8f46"/>
<text x="1256.0" y="94" text-anchor="middle" font-size="12" font-weight="600" fill="#ffffff">compose.stack</text>
<rect x="1526" y="76" width="200" height="53" rx="8" fill="#ffffff" stroke="#d0d7de" stroke-width="1.2"/>
<path d="M 1526 84 q 0 -8 8 -8 h 184 q 8 0 8 8 v 18 h -200 z" fill="#2f8f46"/>
<text x="1626.0" y="94" text-anchor="middle" font-size="12" font-weight="600" fill="#ffffff">cube.color</text>
<rect x="46" y="1267" width="200" height="53" rx="8" fill="#ffffff" stroke="#d0d7de" stroke-width="1.2"/>
<path d="M 46 1275 q 0 -8 8 -8 h 184 q 8 0 8 8 v 18 h -200 z" fill="#1f6feb"/>
<text x="146.0" y="1285" text-anchor="middle" font-size="12" font-weight="600" fill="#ffffff">eot20.grid</text>
<rect x="2636" y="76" width="200" height="53" rx="8" fill="#ffffff" stroke="#d0d7de" stroke-width="1.2"/>
<path d="M 2636 84 q 0 -8 8 -8 h 184 q 8 0 8 8 v 18 h -200 z" fill="#b8860b"/>
<text x="2736.0" y="94" text-anchor="middle" font-size="12" font-weight="600" fill="#ffffff">frame.out</text>
<rect x="46" y="76" width="200" height="53" rx="8" fill="#ffffff" stroke="#d0d7de" stroke-width="1.2"/>
<path d="M 46 84 q 0 -8 8 -8 h 184 q 8 0 8 8 v 18 h -200 z" fill="#8250df"/>
<text x="146.0" y="94" text-anchor="middle" font-size="12" font-weight="600" fill="#ffffff">gfs.cloud</text>
<rect x="46" y="352" width="200" height="53" rx="8" fill="#ffffff" stroke="#d0d7de" stroke-width="1.2"/>
<path d="M 46 360 q 0 -8 8 -8 h 184 q 8 0 8 8 v 18 h -200 z" fill="#8250df"/>
<text x="146.0" y="370" text-anchor="middle" font-size="12" font-weight="600" fill="#ffffff">gfs.icec</text>
<rect x="46" y="730" width="200" height="68" rx="8" fill="#ffffff" stroke="#d0d7de" stroke-width="1.2"/>
<path d="M 46 738 q 0 -8 8 -8 h 184 q 8 0 8 8 v 18 h -200 z" fill="#8250df"/>
<text x="146.0" y="748" text-anchor="middle" font-size="12" font-weight="600" fill="#ffffff">gfs.wind</text>
<rect x="46" y="439" width="200" height="68" rx="8" fill="#ffffff" stroke="#d0d7de" stroke-width="1.2"/>
<path d="M 46 447 q 0 -8 8 -8 h 184 q 8 0 8 8 v 18 h -200 z" fill="#1f6feb"/>
<text x="146.0" y="457" text-anchor="middle" font-size="12" font-weight="600" fill="#ffffff">gfswave.grid</text>
<rect x="416" y="619" width="200" height="53" rx="8" fill="#ffffff" stroke="#d0d7de" stroke-width="1.2"/>
<path d="M 416 627 q 0 -8 8 -8 h 184 q 8 0 8 8 v 18 h -200 z" fill="#2f8f46"/>
<text x="516.0" y="637" text-anchor="middle" font-size="12" font-weight="600" fill="#ffffff">gis.masks</text>
<rect x="2266" y="76" width="200" height="68" rx="8" fill="#ffffff" stroke="#d0d7de" stroke-width="1.2"/>
<path d="M 2266 84 q 0 -8 8 -8 h 184 q 8 0 8 8 v 18 h -200 z" fill="#b8860b"/>
<text x="2366.0" y="94" text-anchor="middle" font-size="12" font-weight="600" fill="#ffffff">globe.mesh</text>
<rect x="2266" y="178" width="200" height="248" rx="8" fill="#ffffff" stroke="#d0d7de" stroke-width="1.2"/>
<path d="M 2266 186 q 0 -8 8 -8 h 184 q 8 0 8 8 v 18 h -200 z" fill="#b8860b"/>
<text x="2366.0" y="196" text-anchor="middle" font-size="12" font-weight="600" fill="#ffffff">globe.ps</text>
<rect x="46" y="1441" width="200" height="53" rx="8" fill="#ffffff" stroke="#d0d7de" stroke-width="1.2"/>
<path d="M 46 1449 q 0 -8 8 -8 h 184 q 8 0 8 8 v 18 h -200 z" fill="#b8860b"/>
<text x="146.0" y="1459" text-anchor="middle" font-size="12" font-weight="600" fill="#ffffff">globe.walk</text>
<rect x="46" y="1093" width="200" height="53" rx="8" fill="#ffffff" stroke="#d0d7de" stroke-width="1.2"/>
<path d="M 46 1101 q 0 -8 8 -8 h 184 q 8 0 8 8 v 18 h -200 z" fill="#2f8f46"/>
<text x="146.0" y="1111" text-anchor="middle" font-size="12" font-weight="600" fill="#ffffff">google.tiles</text>
<rect x="46" y="1615" width="200" height="53" rx="8" fill="#ffffff" stroke="#d0d7de" stroke-width="1.2"/>
<path d="M 46 1623 q 0 -8 8 -8 h 184 q 8 0 8 8 v 18 h -200 z" fill="#2f8f46"/>
<text x="146.0" y="1633" text-anchor="middle" font-size="12" font-weight="600" fill="#ffffff">height.stack</text>
<rect x="46" y="163" width="200" height="53" rx="8" fill="#ffffff" stroke="#d0d7de" stroke-width="1.2"/>
<path d="M 46 171 q 0 -8 8 -8 h 184 q 8 0 8 8 v 18 h -200 z" fill="#2f8f46"/>
<text x="146.0" y="181" text-anchor="middle" font-size="12" font-weight="600" fill="#ffffff">height.window</text>
<rect x="416" y="793" width="200" height="53" rx="8" fill="#ffffff" stroke="#d0d7de" stroke-width="1.2"/>
<path d="M 416 801 q 0 -8 8 -8 h 184 q 8 0 8 8 v 18 h -200 z" fill="#57606a"/>
<text x="516.0" y="811" text-anchor="middle" font-size="12" font-weight="600" fill="#ffffff">latlon.deg</text>
<rect x="46" y="1180" width="200" height="53" rx="8" fill="#ffffff" stroke="#d0d7de" stroke-width="1.2"/>
<path d="M 46 1188 q 0 -8 8 -8 h 184 q 8 0 8 8 v 18 h -200 z" fill="#2f8f46"/>
<text x="146.0" y="1198" text-anchor="middle" font-size="12" font-weight="600" fill="#ffffff">massgis.ortho</text>
<rect x="46" y="541" width="200" height="53" rx="8" fill="#ffffff" stroke="#d0d7de" stroke-width="1.2"/>
<path d="M 46 549 q 0 -8 8 -8 h 184 q 8 0 8 8 v 18 h -200 z" fill="#8250df"/>
<text x="146.0" y="559" text-anchor="middle" font-size="12" font-weight="600" fill="#ffffff">mv2.windbank</text>
<rect x="46" y="1354" width="200" height="53" rx="8" fill="#ffffff" stroke="#d0d7de" stroke-width="1.2"/>
<path d="M 46 1362 q 0 -8 8 -8 h 184 q 8 0 8 8 v 18 h -200 z" fill="#1f6feb"/>
<text x="146.0" y="1372" text-anchor="middle" font-size="12" font-weight="600" fill="#ffffff">noaa.stations</text>
<rect x="46" y="628" width="200" height="68" rx="8" fill="#ffffff" stroke="#d0d7de" stroke-width="1.2"/>
<path d="M 46 636 q 0 -8 8 -8 h 184 q 8 0 8 8 v 18 h -200 z" fill="#1f6feb"/>
<text x="146.0" y="646" text-anchor="middle" font-size="12" font-weight="600" fill="#ffffff">ocean.colour</text>
<rect x="416" y="163" width="200" height="113" rx="8" fill="#ffffff" stroke="#d0d7de" stroke-width="1.2"/>
<path d="M 416 171 q 0 -8 8 -8 h 184 q 8 0 8 8 v 18 h -200 z" fill="#1f6feb"/>
<text x="516.0" y="181" text-anchor="middle" font-size="12" font-weight="600" fill="#ffffff">ocean.fft</text>
<rect x="416" y="706" width="200" height="53" rx="8" fill="#ffffff" stroke="#d0d7de" stroke-width="1.2"/>
<path d="M 416 714 q 0 -8 8 -8 h 184 q 8 0 8 8 v 18 h -200 z" fill="#b8860b"/>
<text x="516.0" y="724" text-anchor="middle" font-size="12" font-weight="600" fill="#ffffff">residency.mgr</text>
<rect x="46" y="919" width="200" height="53" rx="8" fill="#ffffff" stroke="#d0d7de" stroke-width="1.2"/>
<path d="M 46 927 q 0 -8 8 -8 h 184 q 8 0 8 8 v 18 h -200 z" fill="#1f6feb"/>
<text x="146.0" y="937" text-anchor="middle" font-size="12" font-weight="600" fill="#ffffff">sea.peakdir</text>
<rect x="1156" y="223" width="200" height="98" rx="8" fill="#ffffff" stroke="#d0d7de" stroke-width="1.2"/>
<path d="M 1156 231 q 0 -8 8 -8 h 184 q 8 0 8 8 v 18 h -200 z" fill="#1f6feb"/>
<text x="1256.0" y="241" text-anchor="middle" font-size="12" font-weight="600" fill="#ffffff">sea.ps</text>
<rect x="46" y="1006" width="200" height="53" rx="8" fill="#ffffff" stroke="#d0d7de" stroke-width="1.2"/>
<path d="M 46 1014 q 0 -8 8 -8 h 184 q 8 0 8 8 v 18 h -200 z" fill="#2f8f46"/>
<text x="146.0" y="1024" text-anchor="middle" font-size="12" font-weight="600" fill="#ffffff">survey.edits</text>
<rect x="416" y="310" width="200" height="143" rx="8" fill="#ffffff" stroke="#d0d7de" stroke-width="1.2"/>
<path d="M 416 318 q 0 -8 8 -8 h 184 q 8 0 8 8 v 18 h -200 z" fill="#1f6feb"/>
<text x="516.0" y="328" text-anchor="middle" font-size="12" font-weight="600" fill="#ffffff">swe.solver</text>
<rect x="416" y="880" width="200" height="53" rx="8" fill="#ffffff" stroke="#d0d7de" stroke-width="1.2"/>
<path d="M 416 888 q 0 -8 8 -8 h 184 q 8 0 8 8 v 18 h -200 z" fill="#2f8f46"/>
<text x="516.0" y="898" text-anchor="middle" font-size="12" font-weight="600" fill="#ffffff">synth.bed</text>
<rect x="416" y="487" width="200" height="98" rx="8" fill="#ffffff" stroke="#d0d7de" stroke-width="1.2"/>
<path d="M 416 495 q 0 -8 8 -8 h 184 q 8 0 8 8 v 18 h -200 z" fill="#1f6feb"/>
<text x="516.0" y="505" text-anchor="middle" font-size="12" font-weight="600" fill="#ffffff">water.atlas</text>
<rect x="1896" y="76" width="200" height="173" rx="8" fill="#ffffff" stroke="#d0d7de" stroke-width="1.2"/>
<path d="M 1896 84 q 0 -8 8 -8 h 184 q 8 0 8 8 v 18 h -200 z" fill="#1f6feb"/>
<text x="1996.0" y="94" text-anchor="middle" font-size="12" font-weight="600" fill="#ffffff">water.bank</text>
<rect x="1526" y="250" width="200" height="98" rx="8" fill="#ffffff" stroke="#d0d7de" stroke-width="1.2"/>
<path d="M 1526 258 q 0 -8 8 -8 h 184 q 8 0 8 8 v 18 h -200 z" fill="#57606a"/>
<text x="1626.0" y="268" text-anchor="middle" font-size="12" font-weight="600" fill="#ffffff">wave.solver</text>
<rect x="786" y="193" width="200" height="68" rx="8" fill="#ffffff" stroke="#d0d7de" stroke-width="1.2"/>
<path d="M 786 201 q 0 -8 8 -8 h 184 q 8 0 8 8 v 18 h -200 z" fill="#57606a"/>
<text x="886.0" y="211" text-anchor="middle" font-size="12" font-weight="600" fill="#ffffff">weather.mgr</text>
<rect x="786" y="295" width="200" height="53" rx="8" fill="#ffffff" stroke="#d0d7de" stroke-width="1.2"/>
<path d="M 786 303 q 0 -8 8 -8 h 184 q 8 0 8 8 v 18 h -200 z" fill="#2f8f46"/>
<text x="886.0" y="313" text-anchor="middle" font-size="12" font-weight="600" fill="#ffffff">window.field</text>
<rect x="1526" y="382" width="200" height="83" rx="8" fill="#ffffff" stroke="#d0d7de" stroke-width="1.2"/>
<path d="M 1526 390 q 0 -8 8 -8 h 184 q 8 0 8 8 v 18 h -200 z" fill="#2f8f46"/>
<text x="1626.0" y="400" text-anchor="middle" font-size="12" font-weight="600" fill="#ffffff">window.z14</text>
<rect x="1526" y="163" width="200" height="53" rx="8" fill="#ffffff" stroke="#d0d7de" stroke-width="1.2"/>
<path d="M 1526 171 q 0 -8 8 -8 h 184 q 8 0 8 8 v 18 h -200 z" fill="#2f8f46"/>
<text x="1626.0" y="181" text-anchor="middle" font-size="12" font-weight="600" fill="#ffffff">window.z17</text>
<rect x="46" y="1528" width="200" height="53" rx="8" fill="#ffffff" stroke="#d0d7de" stroke-width="1.2"/>
<path d="M 46 1536 q 0 -8 8 -8 h 184 q 8 0 8 8 v 18 h -200 z" fill="#57606a"/>
<text x="146.0" y="1546" text-anchor="middle" font-size="12" font-weight="600" fill="#ffffff">world.flat</text>
<rect x="46" y="1742" width="14" height="14" rx="3" fill="#1f6feb"/>
<text x="66" y="1753" font-size="11" fill="#24292f">water</text>
<rect x="129" y="1742" width="14" height="14" rx="3" fill="#2f8f46"/>
<text x="149" y="1753" font-size="11" fill="#24292f">compose</text>
<rect x="226" y="1742" width="14" height="14" rx="3" fill="#8250df"/>
<text x="246" y="1753" font-size="11" fill="#24292f">air</text>
<rect x="295" y="1742" width="14" height="14" rx="3" fill="#b8860b"/>
<text x="315" y="1753" font-size="11" fill="#24292f">render</text>
<rect x="385" y="1742" width="14" height="14" rx="3" fill="#57606a"/>
<text x="405" y="1753" font-size="11" fill="#24292f">frames</text>
</svg>